<svg width="135" height="135" viewBox="25 30 230 200" fill="none" xmlns="http://www.w3.org/2000/svg">
<g clip-path="url(#clip0_1215_64)">
<path d="M254.146 125.188C191.146 126.188 171.646 136.688 157.146 160.688C152.082 169.07 149.475 181.927 154.188 196.751C154.784 198.622 155.747 200.35 156.968 201.889C164.018 210.772 177.899 224.652 218.146 223.188" stroke="#9D0410" stroke-width="20"/>
<g filter="url(#filter1_d_1215_64)">
<path d="M47.5 102.5C72.7269 100.766 85.6915 98.9175 94.7386 88.3177C104.441 76.9497 100.56 53.8283 84.4538 53.2157C74.5567 52.8393 69.3176 53.2155 63.8841 53.2155C58.4507 53.2155 54.5696 63.6201 66.7949 63.8128C79.0203 64.0055 80.7432 65.666 82.5132 66.5447C85.23 67.8935 88.3348 74.6372 83.6775 81.381C79.9517 86.776 57.9332 89.7946 47.3896 90.6295" stroke="#9D0410" stroke-width="10"/>
<path d="M53.0144 90.3478C53.0144 93.1092 51.0362 95.5652 48.3336 95.5652C45.6309 95.5652 43.0144 93.544 43.0144 90.7826C43.0144 88.0212 44.7971 85.5 47.4998 85.5C50.2024 85.5 53.0144 87.5864 53.0144 90.3478Z" fill="#9D0410"/>
<path d="M53.0144 90.3478C53.0144 93.1092 51.0362 95.5652 48.3336 95.5652C45.6309 95.5652 43.0144 93.544 43.0144 90.7826C43.0144 88.0212 44.7971 85.5 47.4998 85.5C50.2024 85.5 53.0144 87.5864 53.0144 90.3478Z" fill="#9D0410"/>
<path d="M53.0144 90.3478C53.0144 93.1092 51.0362 95.5652 48.3336 95.5652C45.6309 95.5652 43.0144 93.544 43.0144 90.7826C43.0144 88.0212 44.7971 85.5 47.4998 85.5C50.2024 85.5 53.0144 87.5864 53.0144 90.3478Z" stroke="#9D0410"/>
<path d="M52.9998 102.565C52.9998 105.327 50.1878 107.5 47.4851 107.5C44.7824 107.5 42.9998 105.761 42.9998 103C42.9998 100.238 44.7824 97.7173 47.4851 97.7173C50.1878 97.7173 52.9998 99.8037 52.9998 102.565Z" fill="#9D0410"/>
<path d="M52.9998 102.565C52.9998 105.327 50.1878 107.5 47.4851 107.5C44.7824 107.5 42.9998 105.761 42.9998 103C42.9998 100.238 44.7824 97.7173 47.4851 97.7173C50.1878 97.7173 52.9998 99.8037 52.9998 102.565Z" fill="#9D0410"/>
<path d="M52.9998 102.565C52.9998 105.327 50.1878 107.5 47.4851 107.5C44.7824 107.5 42.9998 105.761 42.9998 103C42.9998 100.238 44.7824 97.7173 47.4851 97.7173C50.1878 97.7173 52.9998 99.8037 52.9998 102.565Z" stroke="#9D0410"/>
</g>
<g filter="url(#filter2_d_1215_64)">
<path d="M77.5245 37.3212C53.0738 37.7065 45.5056 41.7528 39.8781 51.0012C38.1162 53.8969 37.1206 58.1786 38.2515 63.1497C38.6864 65.0612 39.6521 66.818 40.9886 68.2521C44.0699 71.5586 49.9061 75.5788 63.5527 75.0861" stroke="#9D0410" stroke-width="10"/>
<path d="M67.5 75C67.5 76.3327 67.246 77.4298 66.5436 78.1982C65.8485 78.9587 64.6183 79.5 62.4254 79.5C60.3131 79.5 58.5 77.5444 58.5 75C58.5 72.4556 60.3131 70.5 62.4254 70.5C64.6183 70.5 65.8485 71.0413 66.5436 71.8018C67.246 72.5702 67.5 73.6673 67.5 75Z" fill="#9D0410" stroke="#9D0410"/>
<path d="M80.5 36.9545C80.4454 38.6928 80.2171 39.8831 79.5861 40.6023C78.9881 41.2838 77.9002 41.6697 75.7414 41.4277C73.5137 41.1779 71.5 39.398 71.5 36.9623C71.5 34.4425 73.3098 32.5 75.4254 32.5C77.6193 32.5 78.85 33.0376 79.5449 33.7921C80.2449 34.5522 80.499 35.6365 80.5 36.9545Z" fill="#9D0410" stroke="#9D0410"/>
</g>
</g>
<defs>
<filter id="filter1_d_1215_64" x="38.9998" y="48.0496" width="69.998" height="67.4504" filterUnits="userSpaceOnUse" color-interpolation-filters="sRGB">
<feFlood flood-opacity="0" result="BackgroundImageFix"/>
<feColorMatrix in="SourceAlpha" type="matrix" values="0 0 0 0 0 0 0 0 0 0 0 0 0 0 0 0 0 0 127 0" result="hardAlpha"/>
<feOffset dy="4"/>
<feGaussianBlur stdDeviation="2"/>
<feComposite in2="hardAlpha" operator="out"/>
<feColorMatrix type="matrix" values="0 0 0 0 0 0 0 0 0 0 0 0 0 0 0 0 0 0 0.25 0"/>
<feBlend mode="normal" in2="BackgroundImageFix" result="effect1_dropShadow_1215_64"/>
<feBlend mode="normal" in="SourceGraphic" in2="effect1_dropShadow_1215_64" result="shape"/>
</filter>
<filter id="filter2_d_1215_64" x="28.7656" y="32" width="56.2344" height="56.1216" filterUnits="userSpaceOnUse" color-interpolation-filters="sRGB">
<feFlood flood-opacity="0" result="BackgroundImageFix"/>
<feColorMatrix in="SourceAlpha" type="matrix" values="0 0 0 0 0 0 0 0 0 0 0 0 0 0 0 0 0 0 127 0" result="hardAlpha"/>
<feOffset dy="4"/>
<feGaussianBlur stdDeviation="2"/>
<feComposite in2="hardAlpha" operator="out"/>
<feColorMatrix type="matrix" values="0 0 0 0 0 0 0 0 0 0 0 0 0 0 0 0 0 0 0.25 0"/>
<feBlend mode="normal" in2="BackgroundImageFix" result="effect1_dropShadow_1215_64"/>
<feBlend mode="normal" in="SourceGraphic" in2="effect1_dropShadow_1215_64" result="shape"/>
</filter>
<clipPath id="clip0_1215_64">
<rect x="25" y="30" width="230" height="200" fill="white"/>
</clipPath>
</defs>
</svg>
